<svg class="svg-icon" style="width: 1em;height: 1em;vertical-align: middle;fill: currentColor;overflow: hidden;" viewBox="0 0 1024 1024" version="1.1" xmlns="http://www.w3.org/2000/svg"><path d="M615.364655 81.568328a40.784164 40.784164 0 0 0 0-81.568328H325.479609a40.784164 40.784164 0 1 0 0 81.568328h104.158359v15.141426h-79.980921a40.784164 40.784164 0 1 0 0 81.44622h241.652278a40.784164 40.784164 0 0 0 0-81.44622h-80.103029V81.568328zM187.98569 331.279752a40.784164 40.784164 0 0 0 40.784165 40.662056h483.304555a40.784164 40.784164 0 1 0 0-81.44622H228.769855a40.906272 40.906272 0 0 0-40.784165 40.784164zM752.858574 560.599094a40.906272 40.906272 0 0 0-40.784164-40.784164H228.769855a40.784164 40.784164 0 1 0 0 81.44622h483.304555a40.784164 40.784164 0 0 0 40.784164-40.662056zM228.769855 749.134271a40.784164 40.784164 0 1 0 0 81.44622h373.407107a40.784164 40.784164 0 1 0 0-81.44622zM854.330551 995.426663a42.371572 42.371572 0 0 0 42.371572-42.249463v-66.304794h66.182685a42.371572 42.371572 0 0 0 0-84.621035h-66.182685v-66.182685a42.371572 42.371572 0 0 0-84.621035 0v66.182685h-66.182686a42.371572 42.371572 0 1 0 0 84.621035H812.569521v66.304794a42.249463 42.249463 0 0 0 41.76103 42.249463z" fill="#4D4D4D" /><path d="M228.769855 72.532316h-48.843311A161.793465 161.793465 0 0 0 18.865729 234.081565v604.069639a185.970904 185.970904 0 0 0 185.726687 185.848796H653.828762a40.784164 40.784164 0 0 0 0-81.568328H204.592416a104.280467 104.280467 0 0 1-104.158359-104.280468V234.081565a80.103029 80.103029 0 0 1 79.98092-80.103029h48.843311a40.784164 40.784164 0 1 0 0-81.44622zM760.429287 72.532316h-48.84331a40.784164 40.784164 0 1 0 0 81.44622h48.84331a80.225137 80.225137 0 0 1 80.103029 80.103029v379.756737a40.784164 40.784164 0 0 0 80.103029 10.257095H922.466969V234.081565A161.671357 161.671357 0 0 0 760.429287 72.532316z" fill="#4D4D4D" /></svg>