<!DOCTYPE svg PUBLIC "-//W3C//DTD SVG 1.1//EN" "http://www.w3.org/Graphics/SVG/1.1/DTD/svg11.dtd">
<!-- Uploaded to: SVG Repo, www.svgrepo.com, Transformed by: SVG Repo Mixer Tools -->
<svg fill="#000000" height="800px" width="800px" version="1.1" id="XMLID_304_" xmlns="http://www.w3.org/2000/svg" xmlns:xlink="http://www.w3.org/1999/xlink" viewBox="0 0 24 24" enable-background="new 0 0 24 24" xml:space="preserve" stroke="#000000" stroke-width="0.00024000000000000003">
<g id="SVGRepo_bgCarrier" stroke-width="0"/>
<g id="SVGRepo_tracerCarrier" stroke-linecap="round" stroke-linejoin="round"/>
<g id="SVGRepo_iconCarrier"> <g id="advanced-search"> <g> <path d="M20.3,22.8l-5.5-5.5c-1.4,1.1-3.3,1.8-5.3,1.8c-4.7,0-8.5-3.8-8.5-8.5s3.8-8.5,8.5-8.5S18,5.9,18,10.6 c0,2-0.7,3.8-1.8,5.3l5.5,5.5L20.3,22.8z M9.5,4C5.9,4,3,6.9,3,10.5S5.9,17,9.5,17s6.5-2.9,6.5-6.5S13.1,4,9.5,4z M22,6h-2V4h-2V2 h2V0h2v2h2v2h-2V6z"/> </g> </g> </g>
</svg>