<svg class="svg-icon" style="width: 1em;height: 1em;vertical-align: middle;fill: currentColor;overflow: hidden;" viewBox="0 0 1024 1024" version="1.1" xmlns="http://www.w3.org/2000/svg"><path d="M0 0h1024v1024H0z" fill="#FFFFFF" /><path d="M397.92 624.192a32 32 0 0 0 45.248 45.248l-45.248-45.248z m214.944-169.696l-22.624-22.624 22.624 22.624zM183.936 385.664a32 32 0 1 0 45.248 45.248l-45.248-45.248z m293.216-247.968l22.624 22.624-22.624-22.624z m-24.576 703.392l-22.624-22.624 22.624 22.624z m-226.272-226.24l-22.496-22.784-0.128 0.128 22.624 22.624z m274.944-272l22.496 22.72 0.128-0.096-22.624-22.624z m-274.944 498.24l22.624-22.624-22.624 22.624z m216.896-171.648l192.32-192.32-45.248-45.248-192.32 192.32 45.248 45.248z m-214.016-238.528l270.592-270.592-45.248-45.248-270.592 270.592 45.248 45.248z m246.016 432.8l364-363.968-45.28-45.248-363.968 363.968 45.248 45.248z m-226.4-226.144l274.944-272-44.992-45.472-274.944 272 44.992 45.472z m275.072-272.096c19.52-19.52 48.448-19.456 66.4-1.504L635.52 318.72c-44.544-44.512-113.984-41.472-156.928 1.472l45.248 45.28z m66.4-1.504a48 48 0 0 1 0 67.904l45.28 45.248a112 112 0 0 0 0-158.4l-45.28 45.248zM499.744 160.32a208 208 0 0 1 294.144 0l45.28-45.248a272 272 0 0 0-384.672 0l45.248 45.248z m294.144 0a208 208 0 0 1 0 294.176l45.28 45.248a272 272 0 0 0 0-384.64L793.888 160.32zM429.92 818.464a128 128 0 0 1-181.024 0l-45.248 45.248a192 192 0 0 0 271.52 0l-45.248-45.248z m-181.024 0a128 128 0 0 1 0-181.024l-45.248-45.248a192 192 0 0 0 0 271.52l45.248-45.248z" fill="#000000" /></svg>