<svg class="svg-icon" style="width: 1em; height: 1em;vertical-align: middle;fill: currentColor;overflow: hidden;" viewBox="0 0 1024 1024" version="1.1" xmlns="http://www.w3.org/2000/svg"><path d="M853.7 507.2c-1 0.8-1.9 1.7-2.9 2.6L525.6 800.4l-0.1 0.1c-0.8 0.5-1.6 1.2-2.3 1.8-81.1 70.2-211.8 69.4-291.6-2-80-71.4-80.8-188.4-1.8-260.8 5.6-5 369.2-330.2 372.8-333.5 57-50.8 149.6-50.8 206.5 0 27.4 24.6 42.6 57.2 42.6 92-0.1 34.9-15.3 67.7-43 92.3L434.4 724.8c-31.6 25.6-79.9 24.6-110.2-2.5-30.3-27-31.3-70.3-2.3-98.6 0.6-0.5 1-1 1.5-1.6h0.1c0.1-0.1 0.3-0.2 0.4-0.4l0.9-0.9c0.1 0 0.2-0.1 0.3-0.2l325.4-290.8c8.6-7.7 8.6-20.1 0-27.9-8.6-7.7-22.6-7.7-31.2 0L294 592.6l-1.4 1.2c-0.2 0.2-0.6 0.5-0.8 0.8l-3.7 3.2c-1.4 1.3-2.6 2.8-3.6 4.3-40 43.8-36.8 107.7 8.5 148.1 47.2 42.1 122.6 43.6 171.7 3.3 0.2-0.2 0.5-0.4 0.7-0.5L840 418.2c36-32.1 55.9-74.8 55.9-120.2 0-45.3-19.6-87.9-55.5-119.9-74.1-66.2-194.8-66.2-268.9 0L384.9 344.9 256.7 459.7l-58 51.8c-0.1 0.2-0.3 0.3-0.4 0.4-95.9 87.7-94.9 229.7 2.1 316.3 48.9 43.7 113.5 65.6 178.1 65.6 62.5 0 125.2-20.5 173.6-61.6 0.4-0.2 0.7-0.5 1.1-0.8 0.4-0.3 0.6-0.5 1-0.8l2.3-2c0.1-0.1 0.2-0.1 0.3-0.2l325.4-290.8 0.2-0.2c0.6-0.4 1-0.9 1.7-1.5 8.8-7.5 9.2-19.9 0.9-27.8-8.5-8-22.5-8.4-31.3-0.9z m0 0"  /></svg>