<svg class="svg-icon" style="width: 1em; height: 1em;vertical-align: middle;fill: currentColor;overflow: hidden;" viewBox="0 0 1024 1024" version="1.1" xmlns="http://www.w3.org/2000/svg"><path d="M460.945152 686.8992a50.6368 50.6368 0 0 1-71.3216-0.0512 50.176 50.176 0 0 1-0.0512-71.0144l249.8048-248.8832a50.176 50.176 0 0 0 0-71.0656 50.5856 50.5856 0 0 0-71.3728 0l-249.8048 248.832a150.4256 150.4256 0 0 0 0.0512 213.1968 151.808 151.808 0 0 0 214.016 0.0512l178.4832-177.7664 195.584-194.048a225.7408 225.7408 0 0 0 0-319.8976 227.7376 227.7376 0 0 0-321.1264 0l-195.584 194.048-249.7536 248.832a300.7488 300.7488 0 0 0 0 426.496 303.5136 303.5136 0 0 0 428.1344 0l321.1264-319.8976a50.176 50.176 0 0 0 0-71.0656 50.5856 50.5856 0 0 0-71.3728 0l-321.0752 319.8976a202.3424 202.3424 0 0 1-285.44 0 200.4992 200.4992 0 0 1 0-284.3648l249.7536-248.832 195.584-194.048a126.5152 126.5152 0 0 1 178.432 0 125.44 125.44 0 0 1-0.0512 177.7664l-195.584 194.048-178.432 177.7664z" fill="#191D3A" /></svg>