<svg class="svg-icon" style="width: 1em; height: 1em;vertical-align: middle;fill: currentColor;overflow: hidden;" viewBox="0 0 1024 1024" version="1.1" xmlns="http://www.w3.org/2000/svg"><path d="M898.164736 131.309568c-19.994624-19.994624-52.412416-19.994624-72.404992 0l-1.447936 1.447936 72.404992 72.40704 1.447936-1.447936C918.157312 183.721984 918.15936 151.30624 898.164736 131.309568z"  /><path d="M554.955737 546.9342l-72.405592-72.405592 333.072384-333.072384 72.405592 72.405592-333.072384 333.072384Z"  /><path d="M472.573952 484.585472l0.606208 0.606208-28.143616 105.037824 99.332096-33.847296 0.520192 0.520192c0.462848-0.417792 0.909312-0.858112 1.36192-1.294336l-72.384512-72.384512C473.430016 483.674112 472.991744 484.124672 472.573952 484.585472z"  /><path d="M747.52 387.072l0 300.484608c0 15.593472-13.316096 28.233728-29.745152 28.233728L132.145152 715.790336c-16.427008 0-29.745152-12.640256-29.745152-28.233728L102.4 348.731392c0-15.593472 13.318144-28.235776 29.745152-28.235776l460.75904 0L592.904192 288.768 102.4 288.768c-18.096128 0-32.768 14.671872-32.768 32.768l0 393.216c0 18.098176 14.671872 32.768 32.768 32.768l645.12 0c18.098176 0 32.768-14.669824 32.768-32.768L780.288 387.072 747.52 387.072z"  /><path d="M133.12 414.705664 525.9776 414.705664 557.707264 382.976 133.12 382.976Z"  /><path d="M133.12 483.223552 464.5376 483.223552 496.267264 451.495936 133.12 451.495936Z"  /><path d="M133.12 514.983936 458.3936 514.983936 449.163264 546.711552 133.12 546.7136Z"  /><path d="M133.12 627.369984l560.523264 0 0 31.729664-560.523264 0 0-31.729664Z"  /></svg>