<svg class="svg-icon" style="width: 1em; height: 1em;vertical-align: middle;fill: currentColor;overflow: hidden;" viewBox="0 0 1024 1024" version="1.1" xmlns="http://www.w3.org/2000/svg"><path d="M875.008 1013.76H144.896c-14.336 0-25.6-11.264-25.6-25.6V96.256c0-14.336 11.264-25.6 25.6-25.6h211.968c14.336 0 25.6 11.264 25.6 25.6s-11.264 25.6-25.6 25.6H170.496V962.56h678.912V121.856h-178.176c-14.336 0-25.6-11.264-25.6-25.6s11.264-25.6 25.6-25.6h203.776c14.336 0 25.6 11.264 25.6 25.6V988.16c0 14.336-11.264 25.6-25.6 25.6z"  /><path d="M658.432 187.904h-296.96c-14.336 0-25.6-11.264-25.6-25.6V35.84c0-14.336 11.264-25.6 25.6-25.6h296.96c14.336 0 25.6 11.264 25.6 25.6v126.464c0 14.336-11.264 25.6-25.6 25.6z m-271.36-51.2h245.76V61.44h-245.76v75.264zM747.008 845.312H278.016c-14.336 0-25.6-11.264-25.6-25.6s11.264-25.6 25.6-25.6h468.992c14.336 0 25.6 11.264 25.6 25.6s-11.264 25.6-25.6 25.6zM523.264 732.16c-104.96 0-199.68-70.144-230.912-169.984-4.096-13.312 3.584-27.648 16.896-32.256 13.312-4.096 27.648 3.584 32.256 16.896C365.568 625.664 440.32 680.96 523.264 680.96c104.96 0 190.464-85.504 190.464-190.464 0-104.96-85.504-190.464-190.464-190.464-60.416 0-117.76 29.184-154.112 78.848-8.192 11.264-24.576 13.824-35.84 5.632s-13.824-24.576-5.632-35.84c45.568-62.464 118.784-99.328 195.072-99.328 133.12 0 241.664 108.544 241.664 241.664 0.512 132.608-108.032 241.152-241.152 241.152z"  /><path d="M290.304 687.104c-14.336 0-25.6-11.264-25.6-25.6v-107.008c0-14.336 11.264-25.6 25.6-25.6h107.008c14.336 0 25.6 11.264 25.6 25.6s-11.264 25.6-25.6 25.6H315.904v81.408c0 14.336-11.264 25.6-25.6 25.6zM597.504 516.096h-69.632c-14.336 0-25.6-11.264-25.6-25.6s11.264-25.6 25.6-25.6h69.632c14.336 0 25.6 11.264 25.6 25.6s-11.264 25.6-25.6 25.6z"  /><path d="M512.512 516.096c-14.336 0-25.6-11.264-25.6-25.6V377.344c0-14.336 11.264-25.6 25.6-25.6s25.6 11.264 25.6 25.6v113.152c0 14.336-11.264 25.6-25.6 25.6z"  /></svg>