<svg class="svg-icon" style="width: 1em; height: 1em;vertical-align: middle;fill: currentColor;overflow: hidden;" viewBox="0 0 1024 1024" version="1.1" xmlns="http://www.w3.org/2000/svg"><path d="M969.813333 199.338667l-34.581333 34.581333-1.92-1.898667a8.981333 8.981333 0 0 1-2.304 6.250667l-15.082667 15.082667a12.629333 12.629333 0 0 1-17.408-2.304L767.146667 121.024a12.629333 12.629333 0 0 1-2.304-17.408l15.082666-15.082667a9.344 9.344 0 0 1 7.509334-2.410666l-3.050667-3.136 34.581333-34.581334a85.333333 85.333333 0 0 1 120.682667 0l30.165333 30.165334a85.333333 85.333333 0 0 1 0 120.768z m-30.165333-90.517334l-30.165333-30.165333a42.666667 42.666667 0 0 0-60.352 0l-32 31.893333 90.965333 90.048 31.445333-31.424a42.666667 42.666667 0 0 0 0.042667-60.352z m-95.445333 155.733334l0.512-0.490667 30.165333 30.165333-7.701333 7.701334s0 0.213333-0.170667 0.298666l-15.082667 15.082667s-0.213333 0-0.298666 0.192l-347.114667 347.093333s0 0.213333-0.170667 0.298667l-15.082666 15.082667c-0.170667 0.170667-0.426667 0.213333-0.597334 0.362666l0.661334 0.597334-226.816 86.656 69.632-230.229334 4.565333 4.266667a10.432 10.432 0 0 1 1.472-11.306667l9.365333-9.365333-0.490666-0.512L724.117333 143.424l30.165334 30.165333-0.96 0.96zM306.112 722.688l142.229333-68.864-82.325333-81.450667zM723.072 204.693333L390.570667 537.173333l90.965333 90.048 332.501333-332.48zM71.317333 168.32v746.666667a42.666667 42.666667 0 0 0 42.666667 42.666666h746.666667a42.666667 42.666667 0 0 0 42.666666-42.666666v-554.666667h37.632l5.034667 5.056V914.986667a85.333333 85.333333 0 0 1-85.333333 85.333333h-746.666667a85.333333 85.333333 0 0 1-85.333333-85.333333v-746.666667a85.333333 85.333333 0 0 1 85.333333-85.333333h533.333333v42.666666h-533.333333a42.666667 42.666667 0 0 0-42.666667 42.666667z" fill="#333333" /></svg>